<svg width="27" height="27" viewBox="0 0 27 27" fill="none" xmlns="http://www.w3.org/2000/svg">
<path fill-rule="evenodd" clip-rule="evenodd" d="M14.7169 11.0894V9.64298C14.7169 9.00013 14.8546 8.65574 15.8648 8.65574H17.1276V6.24503H15.199C12.7883 6.24503 11.801 7.85217 11.801 9.62003V11.0894H9.87247V13.5001H11.801V20.7782H14.7169V13.5001H16.8521L17.1276 11.0894H14.7169Z" fill="#007476"/>
<path d="M13.5 1.99745C10.3316 1.99745 7.43878 3.28316 5.37245 5.37245C3.28316 7.43878 1.99745 10.3316 1.99745 13.5C1.99745 16.6913 3.28316 19.5612 5.37245 21.6505C7.43878 23.7168 10.3316 25.0026 13.5 25.0026C16.6913 25.0026 19.5612 23.7168 21.6505 21.6505C23.7168 19.5612 25.0026 16.6913 25.0026 13.5C25.0026 10.3316 23.7168 7.43878 21.6505 5.37245C19.5612 3.28316 16.6913 1.99745 13.5 1.99745ZM3.94898 3.94898C6.40561 1.51531 9.78061 0 13.5 0C17.2423 0 20.6173 1.51531 23.051 3.94898C25.5077 6.40561 27 9.78061 27 13.5C27 17.2423 25.5077 20.6173 23.051 23.051C20.6173 25.5077 17.2423 27 13.5 27C9.78061 27 6.40561 25.5077 3.94898 23.051C1.51531 20.6173 0 17.2423 0 13.5C0 9.78061 1.51531 6.40561 3.94898 3.94898Z" fill="#007476"/>
</svg>
