<svg width="35" height="25" viewBox="0 0 35 25" fill="none" xmlns="http://www.w3.org/2000/svg">
<path d="M29.4673 24.0838C29.0036 24.0838 28.6278 23.7086 28.6278 23.2449C28.6278 17.8884 24.2701 13.5301 18.913 13.5301C13.5558 13.5301 9.19755 17.8884 9.19755 23.2449C9.19755 23.7086 8.82173 24.0838 8.35866 24.0838C7.8956 24.0838 7.51978 23.7086 7.51978 23.2449C7.51978 16.9633 12.6308 11.8523 18.913 11.8523C25.1951 11.8523 30.3056 16.9633 30.3056 23.2449C30.3056 23.7086 29.9303 24.0838 29.4673 24.0838Z" fill="#A9D7CD"/>
<path d="M18.9129 13.2169C15.2688 13.2169 12.3042 10.2523 12.3042 6.60818C12.3042 2.96462 15.2688 0 18.9129 0C22.5571 0 25.5217 2.96462 25.5217 6.60818C25.5217 10.2523 22.5571 13.2169 18.9129 13.2169ZM18.9129 1.67777C16.1938 1.67777 13.982 3.88963 13.982 6.60818C13.982 9.32729 16.1938 11.5392 18.9129 11.5392C21.6321 11.5392 23.8439 9.32729 23.8439 6.60818C23.8439 3.88963 21.6321 1.67777 18.9129 1.67777Z" fill="#A9D7CD"/>
<path d="M7.29551 21.671H0.838886C0.375821 21.671 0 21.2952 0 20.8322C0 15.4269 4.0932 11.3511 9.52135 11.3511C11.1784 11.3511 12.8171 11.8125 14.3914 12.7229C14.7924 12.955 14.9294 13.4679 14.6978 13.8694C14.4657 14.2704 13.9524 14.4074 13.5514 14.1759C12.2354 13.4142 10.8798 13.0288 9.52135 13.0288C5.33587 13.0288 2.11287 15.9683 1.7186 19.9933H7.29551C7.75858 19.9933 8.1344 20.3691 8.1344 20.8322C8.1344 21.2952 7.75858 21.671 7.29551 21.671Z" fill="#A9D7CD"/>
<path d="M9.56048 12.8914C6.46835 12.8914 3.95337 10.3759 3.95337 7.28429C3.95337 4.19271 6.46835 1.67773 9.56048 1.67773C11.0582 1.67773 12.4658 2.26104 13.5251 3.31971C13.8528 3.64744 13.8528 4.17929 13.5251 4.50646C13.1973 4.83418 12.666 4.83418 12.3389 4.50646C11.5962 3.76432 10.6102 3.35551 9.56048 3.35551C7.39392 3.35551 5.63114 5.11773 5.63114 7.28429C5.63114 9.45029 7.39392 11.2136 9.56048 11.2136C10.8485 11.2136 12.057 10.58 12.7919 9.51964C13.0558 9.13879 13.5782 9.04427 13.959 9.30824C14.3399 9.57221 14.435 10.0951 14.1704 10.4754C13.1218 11.9871 11.3988 12.8914 9.56048 12.8914Z" fill="#A9D7CD"/>
<path d="M34.1611 21.6712H29.6658C29.2027 21.6712 28.8269 21.2953 28.8269 20.8323C28.8269 20.3692 29.2027 19.9934 29.6658 19.9934H33.2764C32.8821 16.408 29.9874 13.5166 26.2364 13.1106C25.8254 13.0664 25.5071 12.7286 25.4887 12.3153C25.4697 11.902 25.7549 11.5363 26.1604 11.4546C28.0311 11.0771 29.3375 9.51625 29.3375 7.65784C29.3375 5.52204 27.3225 3.57694 25.1095 3.57694C24.6465 3.57694 24.2706 3.20168 24.2706 2.73806C24.2706 2.27443 24.6465 1.89917 25.1095 1.89917C28.2553 1.89917 31.0153 4.59032 31.0153 7.65784C31.0153 9.42845 30.1954 11.0095 28.8649 12.0301C32.49 13.4109 35 16.8543 35 20.8323C35 21.2953 34.6242 21.6712 34.1611 21.6712Z" fill="#A9D7CD"/>
</svg>
