<svg width="13" height="19" viewBox="0 0 13 19" fill="none" xmlns="http://www.w3.org/2000/svg">
<path d="M3.82983 14.3528H1.94367V16.4308H0.293274V18.3169H5.48022V16.4308H3.82983V14.3528Z" fill="#A9D7CD"/>
<path d="M7.54182 0H0V2.26339H1.94369V8.65296H0V10.9163H1.94369V11.3351H3.82985V10.9163H7.54182C10.5516 10.9163 13 8.46792 13 5.45817C13 2.44843 10.5516 0 7.54182 0ZM7.54182 8.65314H3.82985V2.26339H7.54182C9.3035 2.26339 10.7366 3.69669 10.7366 5.45817C10.7366 7.21966 9.30331 8.65314 7.54182 8.65314Z" fill="#A9D7CD"/>
<path d="M10.1832 11.7122H0V13.9756H10.1832V11.7122Z" fill="#A9D7CD"/>
</svg>
