<svg width="17" height="21" viewBox="0 0 17 21" fill="none" xmlns="http://www.w3.org/2000/svg">
<path d="M8.49561 0C3.85536 0 0.0780029 3.77736 0.0780029 8.41761C0.0780029 8.94591 0.12643 9.47862 0.227688 9.99811C0.232091 10.0289 0.249701 10.1214 0.284921 10.2799C0.412594 10.8478 0.601902 11.4069 0.848443 11.9396C1.75536 14.0748 3.7497 17.3547 8.1258 20.8679C8.23586 20.956 8.36794 21 8.50001 21C8.63209 21 8.76416 20.956 8.87423 20.8679C13.2459 17.3547 15.2447 14.0748 16.1516 11.9396C16.3981 11.4069 16.5874 10.8522 16.7151 10.2799C16.7503 10.1214 16.7679 10.0289 16.7723 9.99811C16.8692 9.47862 16.922 8.94591 16.922 8.41761C16.9132 3.77736 13.1359 0 8.49561 0ZM15.5925 9.79119C15.5925 9.8 15.5881 9.8088 15.5881 9.81761C15.5837 9.83962 15.5704 9.90566 15.5484 10.0069C15.5484 10.0113 15.5484 10.0113 15.5484 10.0157C15.4384 10.5088 15.2755 10.9887 15.0598 11.4509C15.0554 11.4553 15.0554 11.4642 15.051 11.4686C14.2277 13.4189 12.4227 16.395 8.49561 19.6396C4.56857 16.395 2.76354 13.4189 1.94027 11.4686C1.93586 11.4642 1.93586 11.4553 1.93146 11.4509C1.72014 10.9931 1.55725 10.5088 1.44278 10.0157C1.44278 10.0113 1.44278 10.0113 1.44278 10.0069C1.41637 9.90566 1.40756 9.83962 1.40316 9.81761C1.40316 9.8088 1.39876 9.8 1.39876 9.78679C1.31071 9.33333 1.26668 8.87547 1.26668 8.41321C1.26668 4.42893 4.51133 1.18428 8.49561 1.18428C12.4799 1.18428 15.7245 4.42893 15.7245 8.41321C15.7245 8.87987 15.6805 9.34214 15.5925 9.79119Z" fill="#007476"/>
<path d="M8.49565 3.16541C5.55037 3.16541 3.151 5.56478 3.151 8.51006C3.151 11.4553 5.55037 13.8547 8.49565 13.8547C11.4409 13.8547 13.8403 11.4553 13.8403 8.51006C13.8403 5.56478 11.4409 3.16541 8.49565 3.16541ZM8.49565 12.666C6.20194 12.666 4.33968 10.7994 4.33968 8.51006C4.33968 6.22075 6.20635 4.35408 8.49565 4.35408C10.785 4.35408 12.6516 6.22075 12.6516 8.51006C12.6516 10.7994 10.7894 12.666 8.49565 12.666Z" fill="#007476"/>
</svg>
