<svg width="21" height="21" viewBox="0 0 21 21" fill="none" xmlns="http://www.w3.org/2000/svg">
<g clip-path="url(#clip0)">
<path d="M20.2025 16.4292L16.0877 12.3145C15.5965 11.8233 14.7975 11.8233 14.3062 12.3145L13.2362 13.3845C12.9009 13.7197 12.795 14.1984 12.9174 14.6248L12.5137 15.0285C12.5135 15.0287 12.5135 15.0288 12.5133 15.0289C12.2266 15.3159 10.4411 14.8754 8.28278 12.7171C6.12479 10.5592 5.6842 8.77391 5.9709 8.48668C5.9709 8.48659 5.97098 8.48659 5.97098 8.48659L6.37507 8.08255C6.48913 8.11532 6.60685 8.13206 6.72464 8.13206C7.04723 8.13206 7.36978 8.0093 7.61542 7.76373L8.68543 6.69372C9.1766 6.20256 9.1766 5.40345 8.68543 4.91225L4.57062 0.797392C4.33273 0.559501 4.01638 0.428497 3.67993 0.428497C3.3434 0.428497 3.02717 0.559583 2.78923 0.797392L1.71914 1.86749C1.38388 2.20275 1.27789 2.68149 1.40032 3.10784C1.40032 3.10784 1.05809 3.45336 1.04107 3.47518C-0.0972387 4.74047 -0.310807 6.73256 0.443839 9.1143C1.18282 11.4463 2.77586 13.9167 4.92959 16.0703C7.08324 18.224 9.55365 19.817 11.8857 20.5561C12.8225 20.8529 13.6989 21 14.4947 21C15.7995 21 16.8874 20.6043 17.6672 19.8245L17.8918 19.6C18.0041 19.6323 18.1215 19.6497 18.2417 19.6497C18.5782 19.6497 18.8945 19.5187 19.1324 19.2808L20.2025 18.2107C20.6937 17.7196 20.6937 16.9204 20.2025 16.4292ZM3.67993 1.68809L7.79478 5.80298L6.72534 6.87357C6.72534 6.87357 6.72513 6.87337 6.72476 6.873L6.70938 6.85762L4.66734 4.81557L2.60987 2.75819L3.67993 1.68809ZM16.7766 18.9338C16.7765 18.9339 16.7765 18.9339 16.7764 18.934C15.8702 19.8401 14.2684 19.9897 12.2663 19.3552C10.1231 18.6761 7.83391 17.1931 5.82041 15.1796C3.80683 13.166 2.32387 10.8769 1.64478 8.73371C1.01026 6.73145 1.15993 5.12967 2.06621 4.22335L2.06629 4.22326L2.17991 4.10965L5.37326 7.30296L5.08037 7.59586C5.08016 7.59606 5.08 7.59631 5.07975 7.59655C3.8663 8.81152 5.32433 11.5401 7.39213 13.6079C8.93981 15.1556 10.8577 16.3617 12.2341 16.3617C12.6969 16.3617 13.0985 16.2253 13.4042 15.9196C13.4043 15.9195 13.4044 15.9194 13.4045 15.9193L13.697 15.6267L16.8904 18.82L16.7766 18.9338ZM18.2418 18.3901L14.1269 14.2753L15.1969 13.2052L19.3118 17.32C19.3118 17.32 18.2422 18.3905 18.2418 18.3901Z" fill="#007476"/>
<path d="M15.9476 5.05248C14.7496 3.85446 13.1568 3.19472 11.4628 3.19476C11.115 3.19476 10.833 3.47675 10.833 3.8246C10.833 4.17245 11.115 4.45444 11.4628 4.45444C12.8204 4.45435 14.0968 4.98313 15.0569 5.94318C16.0169 6.90319 16.5456 8.17956 16.5456 9.53713C16.5456 9.88499 16.8275 10.1671 17.1754 10.1671C17.5232 10.1671 17.8052 9.88507 17.8052 9.5373C17.8053 7.84319 17.1455 6.25051 15.9476 5.05248Z" fill="#007476"/>
<path d="M18.2066 2.79345C16.4051 0.992004 14.01 -8.20262e-05 11.4626 5.0867e-09C11.1147 5.0867e-09 10.8327 0.282023 10.8327 0.629836C10.8327 0.977689 11.1148 1.25967 11.4626 1.25967C13.6736 1.25959 15.7523 2.12067 17.3159 3.68415C18.8793 5.24758 19.7403 7.32629 19.7403 9.53732C19.7403 9.88518 20.0223 10.1672 20.3701 10.1672C20.7179 10.1672 21 9.88518 21 9.53741C21.0001 6.98984 20.008 4.59486 18.2066 2.79345Z" fill="#007476"/>
<path d="M13.6884 7.31143C13.0853 6.70826 12.3159 6.38953 11.4631 6.38953C11.4631 6.38953 11.4629 6.38953 11.4629 6.38953C11.115 6.38961 10.833 6.67155 10.8331 7.01944C10.8332 7.3673 11.1152 7.64928 11.463 7.6492C11.4631 7.6492 11.4631 7.6492 11.4632 7.6492C11.9818 7.6492 12.4309 7.83524 12.7978 8.20213C13.1595 8.56389 13.3508 9.02552 13.3507 9.53694C13.3506 9.8848 13.6327 10.1668 13.9804 10.1669H13.9805C14.3284 10.1669 14.6103 9.88488 14.6104 9.53711C14.6104 8.68431 14.2917 7.91469 13.6884 7.31143Z" fill="#007476"/>
</g>
<defs>
<clipPath id="clip0">
<rect width="21" height="21" fill="white"/>
</clipPath>
</defs>
</svg>
