<svg width="40" height="40" viewBox="0 0 40 40" fill="none" xmlns="http://www.w3.org/2000/svg">
<path d="M33.75 22.8125V13.75C33.75 6.16821 27.5818 0 20 0C12.4182 0 6.25 6.16821 6.25 13.75V22.8125H0V35.3125C0 37.8973 2.10266 40 4.6875 40H35.3125C37.8973 40 40 37.8973 40 35.3125V22.8125H33.75ZM15.4688 25.9375H18.4375V36.875H15.4688V25.9375ZM12.3438 36.875H9.375V25.9375H12.3438V36.875ZM21.5625 25.9375H24.5312V36.875H21.5625V25.9375ZM27.6562 25.9375H30.625V36.875H27.6562V25.9375ZM21.5625 22.8125V15.7812H30.625V22.8125H21.5625ZM30.5688 12.6562H21.5625V3.24005C26.3281 3.94562 30.0729 7.82654 30.5688 12.6562ZM18.4375 3.24005V12.6562H9.43115C9.92706 7.82654 13.6719 3.94562 18.4375 3.24005ZM9.375 15.7812H18.4375V22.8125H9.375V15.7812ZM3.125 35.3125V25.9375H6.25V36.875H4.6875C3.82599 36.875 3.125 36.174 3.125 35.3125ZM36.875 35.3125C36.875 36.174 36.174 36.875 35.3125 36.875H33.75V25.9375H36.875V35.3125Z" fill="#A9D7CD"/>
</svg>
