<svg xmlns="http://www.w3.org/2000/svg" viewBox="0 0 22.79 25"><defs></defs><g id="Слой_2" data-name="Слой 2"><g stroke="#A9D7CD" stroke-width="1.5" stroke-linecap="round" stroke-linejoin="round" id="Слой_1-2" data-name="Слой 1"><path class="cls-1" d="M22,25a.82.82,0,0,1-.84-.81,9.56,9.56,0,0,0-9.72-9.36,9.55,9.55,0,0,0-9.71,9.36A.83.83,0,0,1,.84,25,.83.83,0,0,1,0,24.19a11.2,11.2,0,0,1,11.39-11,11.2,11.2,0,0,1,11.4,11A.83.83,0,0,1,22,25Z"/><path class="cls-1" d="M11.39,13.22A6.61,6.61,0,1,1,18,6.61,6.62,6.62,0,0,1,11.39,13.22Zm0-11.54a4.93,4.93,0,1,0,4.93,4.93A4.93,4.93,0,0,0,11.39,1.68Z"/></g></g></svg>