<svg width="24" height="24" viewBox="0 0 24 24" fill="none" xmlns="http://www.w3.org/2000/svg">
<path d="M23.998 12.6935C23.9987 12.6805 24 12.6676 24 12.6545C24 12.5607 23.9825 12.471 23.9506 12.3884L21.8888 5.56627C21.7947 5.25462 21.5074 5.04144 21.1819 5.04144H20.486V3.12677H20.8338C21.2417 3.12677 21.5723 2.79622 21.5723 2.38828C21.5723 1.98043 21.2417 1.64978 20.8338 1.64978H19.7475H15.4H14.3128C13.905 1.64978 13.5743 1.98043 13.5743 2.38828C13.5743 2.79622 13.905 3.12677 14.3128 3.12677H14.6615V5.04134H13.6116C13.2038 5.04134 12.8731 5.37189 12.8731 5.77984V6.76046H11.1257V5.77984C11.1257 5.37189 10.795 5.04134 10.3872 5.04134H9.33694V3.12677H9.68521C10.0931 3.12677 10.4237 2.79622 10.4237 2.38828C10.4237 1.98043 10.0931 1.64978 9.68521 1.64978H8.59844H4.25137H3.16401C2.75616 1.64978 2.42551 1.98043 2.42551 2.38828C2.42551 2.79622 2.75616 3.12677 3.16401 3.12677H3.51287V5.04134H2.81672C2.49119 5.04134 2.20396 5.25452 2.10983 5.56617L0.0342662 12.432C0.0334784 12.4343 0.0327892 12.4366 0.0320999 12.439L0.0315091 12.4409C0.0310168 12.4425 0.0308199 12.444 0.0303275 12.4456C0.0233364 12.4693 0.0176254 12.4934 0.0129975 12.5181C0.0113236 12.5266 0.0103389 12.5352 0.00905887 12.5438C0.00640029 12.5615 0.00413557 12.5792 0.00275705 12.5972C0.00196932 12.6081 0.00147699 12.6189 0.00108313 12.6297C0.00098466 12.6381 0 12.6462 0 12.6545V19.8703C0 19.8734 0.000393864 19.8765 0.000393864 19.8796C0.0103389 21.5015 2.35324 22.3502 4.66808 22.3502C6.98321 22.3502 9.3265 21.5015 9.33654 19.8796C9.33654 19.8765 9.33694 19.8734 9.33694 19.8703V13.393H10.3872C10.795 13.393 11.1257 13.0625 11.1257 12.6545V11.6746H12.873V12.6545C12.873 13.0625 13.2037 13.393 13.6115 13.393H14.6614V19.8703C14.6614 19.8734 14.6618 19.8765 14.6618 19.8796C14.6718 21.5015 17.0147 22.3502 19.3297 22.3502C21.6497 22.3502 23.9982 21.4981 23.9982 19.8693C23.9982 19.8672 23.9979 19.8651 23.9979 19.863V12.6935H23.998ZM16.1384 3.12677H19.009V5.04134H16.1384V3.12677ZM4.98986 3.12677H7.86005V5.04134H4.98986V3.12677ZM4.66808 20.8732C2.5742 20.8732 1.47699 20.1273 1.47699 19.8693C1.47699 19.6114 2.5742 18.8655 4.66808 18.8655C6.76255 18.8655 7.85995 19.6114 7.85995 19.8693C7.85995 20.1272 6.76255 20.8732 4.66808 20.8732ZM7.85995 18.0124C6.98419 17.5997 5.82269 17.3884 4.66808 17.3884C3.51376 17.3884 2.35255 17.5996 1.47699 18.0123V13.393H7.85995V18.0124ZM9.64868 11.916H8.59844H1.7333L3.36498 6.51843H4.25137H8.59854H9.64868V7.49905V10.9361V11.916ZM11.1257 10.1976V8.23745H12.873V10.1975H11.1257V10.1976ZM14.35 10.9361V7.49896V6.51833H15.3999H19.7474H20.6335L22.2647 11.9159H15.3998H14.3499V10.9361H14.35ZM22.521 13.393V18.0122C21.6454 17.5996 20.4841 17.3884 19.3298 17.3884C18.1753 17.3884 17.0141 17.5996 16.1385 18.0123V13.393H22.521ZM19.3298 20.8732C17.2357 20.8732 16.1385 20.1273 16.1385 19.8693C16.1385 19.6114 17.2358 18.8655 19.3298 18.8655C21.4181 18.8655 22.5149 19.607 22.521 19.8671V19.8704C22.521 19.8707 22.521 19.871 22.521 19.8713C22.5159 20.131 21.419 20.8732 19.3298 20.8732Z" fill="#A9D7CD"/>
</svg>
