<svg width="27" height="27" viewBox="0 0 27 27" fill="none" xmlns="http://www.w3.org/2000/svg">
<path fill-rule="evenodd" clip-rule="evenodd" d="M13.4928 5.48355C11.3137 5.48355 11.0395 5.48355 10.1881 5.52684C9.33671 5.57014 8.75948 5.70001 8.23997 5.90204C7.72046 6.10407 7.27311 6.37826 6.82576 6.82561C6.3784 7.27297 6.10422 7.72032 5.90218 8.23983C5.70015 8.75934 5.57028 9.33657 5.52698 10.188C5.48369 11.0394 5.48369 11.3136 5.48369 13.4926C5.48369 15.6717 5.48369 15.9459 5.52698 16.7973C5.57028 17.6487 5.70015 18.2404 5.90218 18.7454C6.10422 19.2794 6.3784 19.7267 6.82576 20.1741C7.27311 20.607 7.72046 20.8812 8.23997 21.0977C8.75948 21.2853 9.33671 21.4296 10.1881 21.4584C11.0395 21.5017 11.3137 21.5162 13.4928 21.5162C15.6718 21.5162 15.946 21.5017 16.7974 21.4584C17.6488 21.4296 18.2405 21.2853 18.7456 21.0977C19.2795 20.8812 19.7269 20.607 20.1742 20.1741C20.6072 19.7267 20.8813 19.2794 21.0978 18.7454C21.2854 18.2404 21.4297 17.6487 21.4586 16.7973C21.5019 15.9459 21.5163 15.6717 21.5163 13.4926C21.5163 11.3136 21.5019 11.0394 21.4586 10.188C21.4297 9.33657 21.2854 8.75934 21.0978 8.23983C20.8813 7.72032 20.6072 7.27297 20.1742 6.82561C19.7269 6.37826 19.2795 6.10407 18.7456 5.90204C18.2405 5.70001 17.6488 5.57014 16.7974 5.52684C15.946 5.48355 15.6718 5.48355 13.4928 5.48355ZM13.4928 6.92663C15.643 6.92663 15.8883 6.92663 16.7397 6.96992C17.519 7.01321 17.9375 7.14309 18.2261 7.24411C18.6013 7.38841 18.861 7.56158 19.1496 7.8502C19.4238 8.12438 19.597 8.39857 19.7413 8.77377C19.8568 9.04795 19.9866 9.48088 20.0155 10.2601C20.0588 11.0971 20.0732 11.3569 20.0732 13.4926C20.0732 15.6428 20.0588 15.8881 20.0155 16.7396C19.9866 17.5188 19.8568 17.9373 19.7413 18.2259C19.597 18.6011 19.4238 18.8609 19.1496 19.1495C18.861 19.4237 18.6013 19.5969 18.2261 19.7412C17.9375 19.8566 17.519 19.9865 16.7397 20.0154C15.8883 20.0586 15.643 20.0731 13.4928 20.0731C11.357 20.0731 11.0973 20.0586 10.2603 20.0154C9.48102 19.9865 9.0481 19.8566 8.77391 19.7412C8.39871 19.5969 8.12453 19.4237 7.85034 19.1495C7.56173 18.8609 7.38856 18.6011 7.24425 18.2259C7.14323 17.9373 7.01336 17.5188 6.97006 16.7396C6.92677 15.8881 6.92677 15.6428 6.92677 13.4926C6.92677 11.3569 6.92677 11.0971 6.97006 10.2601C7.01336 9.48088 7.14323 9.04795 7.24425 8.77377C7.38856 8.39857 7.56173 8.12438 7.85034 7.8502C8.12453 7.56158 8.39871 7.38841 8.77391 7.24411C9.0481 7.14309 9.48102 7.01321 10.2603 6.96992C11.0973 6.92663 11.357 6.92663 13.4928 6.92663Z" fill="#007476"/>
<path fill-rule="evenodd" clip-rule="evenodd" d="M13.4928 9.17795C11.1117 9.17795 9.17799 11.1117 9.17799 13.4928C9.17799 15.8738 11.1117 17.8076 13.4928 17.8076C15.8739 17.8076 17.8076 15.8738 17.8076 13.4928C17.8076 11.1117 15.8739 9.17795 13.4928 9.17795ZM13.4928 16.2779C11.9631 16.2779 10.7221 15.0224 10.7221 13.4928C10.7221 11.9631 11.9631 10.722 13.4928 10.722C15.0225 10.722 16.2779 11.9631 16.2779 13.4928C16.2779 15.0224 15.0225 16.2779 13.4928 16.2779Z" fill="#007476"/>
<path fill-rule="evenodd" clip-rule="evenodd" d="M18.861 9.23563C18.861 9.784 18.4137 10.2314 17.8797 10.2314C17.3314 10.2314 16.884 9.784 16.884 9.23563C16.884 8.70169 17.3314 8.25433 17.8797 8.25433C18.4137 8.25433 18.861 8.70169 18.861 9.23563Z" fill="#007476"/>
<path d="M13.4928 1.99145C10.318 1.99145 7.44629 3.27579 5.36825 5.36825C3.27579 7.44629 1.99145 10.318 1.99145 13.4928C1.99145 16.6676 3.27579 19.5537 5.36825 21.6317C7.44629 23.7098 10.318 24.9941 13.4928 24.9941C16.6676 24.9941 19.5537 23.7098 21.6317 21.6317C23.7098 19.5537 24.9941 16.6676 24.9941 13.4928C24.9941 10.318 23.7098 7.44629 21.6317 5.36825C19.5537 3.27579 16.6676 1.99145 13.4928 1.99145ZM3.95404 3.95404C6.39284 1.51523 9.76964 0 13.4928 0C17.2304 0 20.5927 1.51523 23.046 3.95404C25.4848 6.39284 27 9.76964 27 13.4928C27 17.2304 25.4848 20.5927 23.046 23.046C20.5927 25.4848 17.2304 27 13.4928 27C9.76964 27 6.39284 25.4848 3.95404 23.046C1.51523 20.5927 0 17.2304 0 13.4928C0 9.76964 1.51523 6.39284 3.95404 3.95404Z" fill="#007476"/>
</svg>
