<svg width="46" height="40" viewBox="0 0 46 40" fill="none" xmlns="http://www.w3.org/2000/svg">
<path d="M44.8125 0H39.7014C39.0171 0 38.4108 0.54687 38.4108 1.22137V5.19084H16.5724V4.27481C16.5724 1.91756 14.7132 0 12.3647 0H1.29063C0.606364 0 0 0.54687 0 1.22137V36.1832C0 36.8577 0.606364 37.4046 1.29063 37.4046H2.47811V38.7786C2.47811 39.4531 3.0329 40 3.71717 40C4.40144 40 4.95623 39.4531 4.95623 38.7786V37.4046H40.8889V38.7786C40.8889 39.4531 41.4437 40 42.1279 40C42.8122 40 43.367 39.4531 43.367 38.7786V37.4046H44.8125C45.4968 37.4046 46 36.8577 46 36.1832V1.22137C46 0.54687 45.4968 0 44.8125 0ZM14.0943 4.27481V5.19084H7.58923V2.44275H12.3647C13.3634 2.44275 14.0943 3.24748 14.0943 4.27481ZM38.4108 14.9618H7.58923V12.5191H38.4108V14.9618ZM7.58923 27.6336H19.0505V30.0763H7.58923V27.6336ZM7.58923 22.4505C7.74411 22.4464 7.74333 22.4427 7.79568 22.4427H12.2873C13.3121 22.4427 14.0943 23.2646 14.0943 24.2748V25.1908H7.58923V22.4505ZM21.5286 30.0763V27.6336H38.4108V30.0763H21.5286ZM16.5724 25.1908V24.2748C16.5724 21.9177 14.6785 20 12.2873 20H7.79568C7.7438 20 7.74411 20.0021 7.58923 20.0038V17.4046H38.4108V25.1908H16.5724ZM38.4108 10.0763H21.5286V7.63359H38.4108V10.0763ZM19.0505 10.0763H7.58923V7.63359H19.0505V10.0763ZM2.47811 34.9618V2.44275H5.11111V7.63359V11.4504V27.6336V31.4504V34.9618H2.47811ZM7.58923 32.5191H38.4108V34.9618H7.58923V32.5191ZM40.8889 34.9618V2.44275H43.5219V34.9618H40.8889Z" fill="#A9D7CD"/>
</svg>
