<svg width="30" height="30" viewBox="0 0 30 30" fill="none" xmlns="http://www.w3.org/2000/svg">
<g clip-path="url(#clip0)">
<path d="M25.8621 1.24741C25.5768 0.962072 25.5768 0.499395 25.8621 0.214058C26.1476 -0.0713525 26.6101 -0.0713525 26.8956 0.214058L26.9939 0.312263C27.2792 0.5976 27.2792 1.06028 26.9939 1.34561C26.8511 1.48832 26.6642 1.55964 26.4772 1.55964C26.2902 1.55964 26.1032 1.48832 25.9605 1.34561L25.8621 1.24741ZM25.7639 9.38408C26.9291 9.38408 27.8772 10.3321 27.8772 11.4973C27.8772 12.6624 26.9291 13.6104 25.7639 13.6104C24.5986 13.6104 23.6506 12.6624 23.6506 11.4973C23.6506 10.3321 24.5986 9.38408 25.7639 9.38408ZM25.7639 10.8455C25.4044 10.8455 25.112 11.1379 25.112 11.4973C25.112 11.8567 25.4044 12.149 25.7639 12.149C26.1234 12.149 26.4158 11.8567 26.4158 11.4973C26.4158 11.1379 26.1234 10.8455 25.7639 10.8455ZM29.0748 19.9729V20.849C29.0748 21.9905 28.1462 22.9191 27.0047 22.9191H26.3959V26.8587C26.3959 28.5908 24.9868 30 23.2547 30H6.74544C5.0134 30 3.60425 28.5908 3.60425 26.8587V22.9191H2.99543C1.85394 22.9191 0.925293 21.9905 0.925293 20.849V19.9729C0.925293 18.8314 1.85394 17.9028 2.99543 17.9028H3.60425V15.7435C3.60425 15.3399 3.93145 15.0128 4.33494 15.0128H25.6652C26.0687 15.0128 26.3959 15.3399 26.3959 15.7435V17.9028H27.0047C28.1462 17.9028 29.0748 18.8314 29.0748 19.9729ZM3.60417 19.3642H2.99536C2.65967 19.3642 2.38661 19.6372 2.38661 19.9729V20.849C2.38661 21.1847 2.65967 21.4578 2.99536 21.4578H3.60417V19.3642ZM24.9345 16.4742H5.06557V26.8587C5.06557 27.785 5.81913 28.5386 6.74537 28.5386H23.2546C24.1809 28.5386 24.9345 27.785 24.9345 26.8587V16.4742ZM27.6134 19.9729C27.6134 19.6372 27.3403 19.3642 27.0047 19.3642H26.3959V21.4578H27.0047C27.3403 21.4578 27.6134 21.1847 27.6134 20.849V19.9729ZM23.8384 5.85635C24.0253 5.85635 24.2122 5.78504 24.3549 5.64255L24.4532 5.54427C24.7387 5.25901 24.7388 4.7964 24.4536 4.51092C24.1685 4.22536 23.7057 4.22529 23.4202 4.51056L23.3219 4.60883C23.0364 4.8941 23.0363 5.3567 23.3215 5.64219C23.4642 5.78496 23.6514 5.85635 23.8384 5.85635ZM17.782 13.5681C17.782 13.9716 18.1092 14.2987 18.5127 14.2987C18.9161 14.2987 19.2433 13.9716 19.2433 13.5681C19.2433 12.9909 19.713 12.5213 20.2901 12.5213C20.8673 12.5213 21.3369 12.9909 21.3369 13.5681C21.3369 13.9716 21.6641 14.2987 22.0676 14.2987C22.4711 14.2987 22.7983 13.9716 22.7983 13.5681C22.7983 12.1851 21.6731 11.0599 20.2901 11.0599C18.9071 11.0599 17.782 12.185 17.782 13.5681ZM4.13429 12.4743C4.04142 12.0816 4.28453 11.688 4.67727 11.5951L12.6153 9.7183L12.4753 9.12578C12.2127 8.0149 12.9028 6.89752 14.0136 6.63498L14.8662 6.43346C15.9766 6.17084 17.0944 6.86084 17.3571 7.97165L17.4972 8.56417L25.4351 6.6873C25.8277 6.59457 26.2215 6.83753 26.3143 7.23028C26.4072 7.62303 26.1641 8.01666 25.7713 8.10953L5.01354 13.0173C4.95706 13.0307 4.90043 13.0371 4.84475 13.0371C4.51374 13.0371 4.21379 12.8105 4.13429 12.4743ZM13.8974 8.78959L14.0375 9.38204L16.075 8.90029L15.9349 8.30784C15.8688 8.02813 15.6182 7.8391 15.3425 7.8391C15.2963 7.8391 15.2494 7.84443 15.2025 7.85547L14.3499 8.05707C14.0231 8.13437 13.8202 8.46289 13.8974 8.78959Z" fill="#A9D7CD"/>
</g>
<defs>
<clipPath id="clip0">
<rect width="30" height="30" fill="white"/>
</clipPath>
</defs>
</svg>
