<svg width="35" height="22" viewBox="0 0 35 22" fill="none" xmlns="http://www.w3.org/2000/svg">
<path d="M32.513 9.32901H32.168V3.62656C32.168 1.62689 30.5411 0 28.5416 0H6.45845C4.45889 0 2.832 1.62689 2.832 3.62656V9.32901H2.48689C1.11567 9.32901 0 10.4447 0 11.816V15.5007C0 16.872 1.11567 17.9877 2.487 17.9877H5.56167V20.3281C5.56167 20.7577 5.90989 21.1059 6.33945 21.1059C6.769 21.1059 7.11722 20.7577 7.11722 20.3281V17.9877H27.8829V20.3281C27.8829 20.7577 28.2311 21.1059 28.6607 21.1059C29.0902 21.1059 29.4384 20.7577 29.4384 20.3281V17.9877H32.5131C33.8844 17.9877 35.0001 16.872 35.0001 15.5007V11.816C35 10.4447 33.8843 9.32901 32.513 9.32901ZM4.38756 3.62656C4.38756 2.48467 5.31644 1.55556 6.45845 1.55556H28.5416C29.6834 1.55556 30.6124 2.48456 30.6124 3.62656V9.32901H29.6153V7.76712C29.6153 6.77112 28.8051 5.9609 27.8092 5.9609H19.8366C18.8404 5.9609 18.0301 6.77112 18.0301 7.76712V9.32901H16.9698V7.76712C16.9698 6.77112 16.1594 5.9609 15.1633 5.9609H7.19078C6.19489 5.9609 5.38467 6.77112 5.38467 7.76712V9.32901H4.38756V3.62656ZM19.5857 9.32901V7.76712C19.5857 7.63124 19.7006 7.51646 19.8366 7.51646H27.8092C27.9451 7.51646 28.0598 7.63124 28.0598 7.76712V9.32901H19.5857ZM6.94022 9.32901V7.76712C6.94022 7.63124 7.05489 7.51646 7.19078 7.51646H15.1634C15.2994 7.51646 15.4143 7.63124 15.4143 7.76712V9.32901H6.94022ZM33.4444 15.5007C33.4444 16.0142 33.0266 16.4321 32.513 16.4321H2.487C1.97344 16.4321 1.55556 16.0142 1.55556 15.5007V11.816C1.55556 11.3025 1.97344 10.8846 2.487 10.8846H32.513C33.0266 10.8846 33.4444 11.3025 33.4444 11.816V15.5007Z" fill="#A9D7CD"/>
</svg>
