<svg width="27" height="27" viewBox="0 0 27 27" fill="none" xmlns="http://www.w3.org/2000/svg">
<path fill-rule="evenodd" clip-rule="evenodd" d="M13.323 18.0186H14.2919C14.2919 18.0186 14.5714 17.9813 14.7205 17.8323C14.8509 17.6832 14.8509 17.4037 14.8509 17.4037C14.8509 17.4037 14.8323 16.118 15.4286 15.9316C16.0062 15.7453 16.7702 17.1801 17.5528 17.7205C18.1677 18.1304 18.6149 18.0372 18.6149 18.0372L20.7578 18.0186C20.7578 18.0186 21.8571 17.9441 21.3354 17.0683C21.2981 16.9938 21.0373 16.4161 19.7516 15.2422C18.4099 13.9938 18.5963 14.1987 20.1988 12.0559C21.1863 10.7515 21.5776 9.95027 21.4472 9.61487C21.3354 9.27947 20.6087 9.37263 20.6087 9.37263H18.2236C18.2236 9.37263 18.0373 9.354 17.9068 9.42853C17.7764 9.5217 17.7019 9.6894 17.7019 9.6894C17.7019 9.6894 17.3106 10.7142 16.8075 11.5714C15.7453 13.3788 15.3168 13.472 15.1491 13.3602C14.7391 13.0993 14.8323 12.2981 14.8323 11.7391C14.8323 9.98754 15.0932 9.26083 14.3106 9.05586C14.0497 8.99996 13.8634 8.96269 13.1925 8.94406C12.3354 8.94406 11.6087 8.96269 11.1988 9.14903C10.9379 9.2981 10.7143 9.59624 10.8447 9.59624C11.0124 9.6335 11.3665 9.70804 11.5528 9.96891C11.795 10.2857 11.795 11.0497 11.795 11.0497C11.795 11.0497 11.9441 13.118 11.4596 13.3788C11.1429 13.5465 10.6956 13.1925 9.74534 11.5341C9.26087 10.6956 8.8882 9.76394 8.8882 9.76394C8.8882 9.76394 8.81366 9.59624 8.68323 9.50307C8.53416 9.39127 8.32919 9.354 8.32919 9.354L6.03726 9.37263C6.03726 9.37263 5.70186 9.37263 5.57143 9.5217C5.45962 9.65214 5.57143 9.93164 5.57143 9.93164C5.57143 9.93164 7.36025 14.1056 9.37267 16.2111C11.2174 18.149 13.323 18.0186 13.323 18.0186Z" fill="#007476"/>
<path d="M13.5093 1.99379C10.323 1.99379 7.45342 3.2795 5.36646 5.36646C3.2795 7.45342 1.99379 10.323 1.99379 13.5093C1.99379 16.677 3.2795 19.5466 5.36646 21.6335C7.45342 23.7205 10.323 25.0062 13.5093 25.0062C16.677 25.0062 19.5466 23.7205 21.6335 21.6335C23.7205 19.5466 25.0062 16.677 25.0062 13.5093C25.0062 10.323 23.7205 7.45342 21.6335 5.36646C19.5466 3.2795 16.677 1.99379 13.5093 1.99379ZM3.95031 3.95031C6.3913 1.50932 9.76398 0 13.5093 0C17.236 0 20.6087 1.50932 23.0497 3.95031C25.4907 6.3913 27 9.78261 27 13.5093C27 17.236 25.4907 20.6087 23.0497 23.0497C20.6087 25.4907 17.236 27 13.5093 27C9.76398 27 6.3913 25.4907 3.95031 23.0497C1.50932 20.6087 0 17.236 0 13.5093C0 9.78261 1.50932 6.3913 3.95031 3.95031Z" fill="#007476"/>
</svg>
